<?xml version="1.0" ?><svg xmlns="http://www.w3.org/2000/svg" xmlns:xlink="http://www.w3.org/1999/xlink" version="1.1" id="design" viewBox="0 0 100 100" style="enable-background:new 0 0 100 100;" xml:space="preserve"><style type="text/css">
	.st0{fill:#333333;}
	.st1{fill:#D5FFA2;}
</style><g><g><path class="st0" d="M37,41.5H25.4c-0.6,0-1.1-0.5-1.1-1.1s0.5-1.1,1.1-1.1H37c0.6,0,1.1,0.5,1.1,1.1S37.6,41.5,37,41.5z"/></g><g><path class="st1" d="M46.1,37.4c0.4,0,0.8,0.1,1.1,0.2c-1.1-2.8-3.8-4.9-7.1-4.9c-4.3,0-7.7,3.4-7.7,7.7s3.4,7.7,7.7,7.7    c1.2,0,2.4-0.3,3.4-0.8v-7.2C43.4,38.6,44.6,37.4,46.1,37.4z"/></g><g><path class="st0" d="M49.5,28.2H25.4c-0.6,0-1.1-0.5-1.1-1.1s0.5-1.1,1.1-1.1h24.1c0.6,0,1.1,0.5,1.1,1.1S50.1,28.2,49.5,28.2z"/></g><g><path class="st0" d="M74.6,28.2H63c-0.6,0-1.1-0.5-1.1-1.1s0.5-1.1,1.1-1.1h11.6c0.6,0,1.1,0.5,1.1,1.1S75.2,28.2,74.6,28.2z"/></g><g><circle class="st1" cx="57" cy="27.1" r="7.7"/></g><g><path class="st0" d="M57.9,28.2h-1.6c-0.6,0-1.1-0.5-1.1-1.1s0.5-1.1,1.1-1.1h1.6c0.6,0,1.1,0.5,1.1,1.1S58.5,28.2,57.9,28.2z"/></g><path class="st0" d="M74.6,39.3H49.7c-0.4-1.7-1.9-3-3.6-3c-2,0-3.7,1.7-3.7,3.7v17.4c0,0.4-0.4,0.8-0.8,0.8c-0.1,0-0.3,0-0.4-0.3   c-0.2-0.4-0.4-1-0.6-1.6c-0.2-0.5-0.4-0.9-0.5-1.3c-0.7-2.1-3-3.2-5.2-2.7c-0.1,0-0.2,0-0.3,0c-1.4,0.4-2.1,1.8-1.7,3.1   c0,0,0,0.1,0,0.1c1.1,2.8,1.9,5.6,2.5,8.2l1.1,5.8c0.5,1.9,1.4,3.5,2.7,4.8l1.3,1.2v3.8c0,0.6,0.5,1.1,1.1,1.1s1.1-0.5,1.1-1.1V75   c0-0.3-0.1-0.6-0.3-0.8l-1.6-1.5c-1-1-1.7-2.3-2.1-3.7l-1.1-5.7c-0.5-2.8-1.4-5.6-2.5-8.5c0-0.1,0-0.3,0.2-0.3c0.1,0,0.1,0,0.2,0   c1-0.3,2.4,0.1,2.7,1.3c0.2,0.5,0.4,0.9,0.5,1.4c0.2,0.6,0.5,1.3,0.7,1.7c0,0,0,0.1,0.1,0.1c0.7,1.2,1.7,1.4,2.4,1.4   c1.6,0,3-1.4,3-3V40.1c0-0.8,0.7-1.5,1.5-1.5s1.5,0.7,1.5,1.5V51v1v3.8c0,0.6,0.5,1.1,1.1,1.1s1.1-0.5,1.1-1.1V52v-1   c0-0.5,0.4-0.9,0.9-0.9h1.5c0.4,0,0.7,0.3,0.7,0.7v2c-0.1,0.2-0.1,0.5-0.1,0.8v4.6c0,0.6,0.5,1.1,1.1,1.1s1.1-0.5,1.1-1.1v-1.8   C55,56.1,55,56,55,55.8v-2.7c0.1-0.2,0.3-0.3,0.5-0.3h1.7c0.4,0,0.7,0.3,0.7,0.7v3.2v3.8v1c0,0.6,0.5,1.1,1.1,1.1s1.1-0.5,1.1-1.1   v-1v-3.8c0-0.5,0.4-0.9,0.9-0.9h1.5c0.4,0,0.7,0.3,0.7,0.7v10.9c0,2.3-0.8,4.6-2.3,6.3l-0.6,0.6c-0.9,1-1.4,2.3-1.4,3.6v1.5   c0,0.6,0.5,1.1,1.1,1.1s1.1-0.5,1.1-1.1v-1.5c0-1,0.5-1.7,0.8-2.1l0.6-0.6c1.9-2.2,2.9-5,2.9-7.8V56.5c0-1.6-1.2-2.8-2.8-2.8H61   c-0.3,0-0.6,0.1-0.9,0.1v-0.3c0-1.6-1.2-2.8-2.8-2.8h-1.7c-0.2,0-0.4,0-0.6,0.1c0-1.6-1.3-2.8-2.8-2.8h-1.5c-0.3,0-0.6,0.1-0.9,0.1   v-6.6h24.8c0.6,0,1.1-0.5,1.1-1.1S75.2,39.3,74.6,39.3z"/></g></svg>