<?xml version="1.0" ?><svg xmlns="http://www.w3.org/2000/svg" xmlns:xlink="http://www.w3.org/1999/xlink" version="1.1" id="Layer_1" viewBox="0 0 100 100" style="enable-background:new 0 0 100 100;" xml:space="preserve"><style type="text/css">
	.st0{fill:#D5FFA2;}
	.st1{fill:#333333;}
</style><g><path class="st0" d="M52.9,18h24c2.8,0,5.1,2.6,5.1,5.8V43c0,3.2-2.3,5.8-5.1,5.8h-24c-2.8,0-5.1-2.6-5.1-5.8V23.8   C47.7,20.6,50,18,52.9,18z"/><g><path class="st1" d="M66.8,30.6c-1.3,0-2.3-1-2.3-2.3s1-2.3,2.3-2.3c1.3,0,2.3,1,2.3,2.3c0,0.6,0.5,1.1,1.1,1.1s1.1-0.5,1.1-1.1    c0-2.1-1.5-3.9-3.5-4.4v-0.7c0-0.6-0.5-1.1-1.1-1.1c-0.6,0-1.1,0.5-1.1,1.1v0.7c-2,0.5-3.5,2.3-3.5,4.4c0,2.5,2.1,4.6,4.6,4.6    c1.3,0,2.3,1,2.3,2.3c0,1.3-1,2.3-2.3,2.3c-1.3,0-2.3-1-2.3-2.3c0-0.6-0.5-1.1-1.1-1.1s-1.1,0.5-1.1,1.1c0,2.1,1.5,3.9,3.5,4.4    v0.7c0,0.6,0.5,1.1,1.1,1.1c0.6,0,1.1-0.5,1.1-1.1v-0.7c2-0.5,3.5-2.3,3.5-4.4C71.4,32.7,69.3,30.6,66.8,30.6z"/><path class="st1" d="M45.5,67.1c0.3,0,0.6-0.1,0.8-0.3l7.9-7.9c0.4-0.4,0.4-1.2,0-1.6c-0.4-0.4-1.2-0.4-1.6,0l-7.1,7.1l-2.9-2.9    c-0.4-0.4-1.2-0.4-1.6,0c-0.4,0.4-0.4,1.2,0,1.6l3.7,3.7C44.9,66.9,45.2,67.1,45.5,67.1z"/><path class="st1" d="M37.4,53.7c0-0.6-0.5-1.1-1.1-1.1h-17c-0.6,0-1.1,0.5-1.1,1.1c0,0.6,0.5,1.1,1.1,1.1h17    C36.8,54.8,37.4,54.3,37.4,53.7z"/><path class="st1" d="M37.4,59.6c0-0.6-0.5-1.1-1.1-1.1H21.6c-0.6,0-1.1,0.5-1.1,1.1c0,0.6,0.5,1.1,1.1,1.1h14.6    C36.8,60.7,37.4,60.2,37.4,59.6z"/><path class="st1" d="M37.4,65.5c0-0.6-0.5-1.1-1.1-1.1H24.4c-0.6,0-1.1,0.5-1.1,1.1s0.5,1.1,1.1,1.1h11.9    C36.8,66.7,37.4,66.1,37.4,65.5z"/><path class="st1" d="M48.2,42.8v-3.9h2.6c0.6,0,1.1-0.5,1.1-1.1c0-0.6-0.5-1.1-1.1-1.1h-7.4c-0.6,0-1.1,0.5-1.1,1.1    c0,0.6,0.5,1.1,1.1,1.1h2.6v3.9c-4.4,0.3-8.7,2-12,5c-0.5,0.4-0.5,1.1-0.1,1.6c0.4,0.5,1.1,0.5,1.6,0.1c3.2-2.9,7.3-4.5,11.6-4.5    c9.6,0,17.3,7.8,17.3,17.3s-7.8,17.3-17.3,17.3c-6.6,0-12.6-3.7-15.5-9.6c-0.3-0.6-1-0.8-1.5-0.5c-0.6,0.3-0.8,1-0.5,1.5    C32.8,77.8,39.6,82,47.1,82c10.8,0,19.6-8.8,19.6-19.6C66.7,51.9,58.5,43.4,48.2,42.8z"/></g></g></svg>