<?xml version="1.0" ?><svg xmlns="http://www.w3.org/2000/svg" xmlns:xlink="http://www.w3.org/1999/xlink" version="1.1" id="styleguide" viewBox="0 0 100 100" style="enable-background:new 0 0 100 100;" xml:space="preserve"><style type="text/css">
	.st0{fill:#D5FFA2;}
	.st1{fill:#333333;}
</style><g><path class="st0" d="M35.3,18.3L35.3,18.3c8.8,0,15.9,7.1,15.9,15.9c0,0,0,0,0,0l0,0c0,8.8-7.1,15.9-15.9,15.9l0,0l0,0   c-8.8,0-15.9-7.1-15.9-15.9v0l0,0C19.4,25.4,26.5,18.3,35.3,18.3C35.3,18.3,35.3,18.3,35.3,18.3z"/><g><path class="st1" d="M78.3,35.1L78.3,35.1c-1.7-0.1-3.4-0.3-5.1-0.6c-1.8-0.2-3.5-0.8-5.1-1.7c-2.1-1.4-4-3.1-5.7-4.9    c-1-1-2.5-1-3.5,0c0,0,0,0,0,0c-1.7,1.9-3.7,3.5-5.8,4.9c-1.6,0.9-3.3,1.5-5.1,1.7c-1.7,0.3-3.4,0.5-5.2,0.6    c-1.3,0-2.3,1.1-2.3,2.4h0v22.9c0.1,2.8,1,5.5,2.6,7.7c1.6,2.3,3.6,4.5,5.8,6.3c3.3,2.7,6.8,5.1,10.5,7.1v0c0.7,0.4,1.5,0.4,2.1,0    c3.7-2,7.3-4.4,10.5-7.1c2.2-1.8,4.2-3.9,5.8-6.3c1.6-2.3,2.5-5,2.6-7.7V37.5C80.6,36.2,79.6,35.2,78.3,35.1z M78.3,60.3    c-0.1,2.3-0.9,4.5-2.2,6.4c-1.5,2.2-3.3,4.1-5.4,5.8c-3.1,2.6-6.5,4.9-10,6.8c-3.6-1.9-7-4.2-10.1-6.8c-2-1.7-3.9-3.6-5.4-5.8    c-1.4-1.9-2.1-4.1-2.2-6.5V37.5c1.8-0.1,3.7-0.3,5.5-0.6c2.1-0.3,4.2-1,6-2c2.2-1.5,4.3-3.3,6.2-5.3h0.1c1.8,2,3.9,3.8,6.1,5.3    c1.9,1,3.9,1.7,6,2c1.8,0.3,3.6,0.5,5.4,0.6v0h0V60.3z"/><path class="st1" d="M42.4,26.7c-0.5-0.4-1.3-0.2-1.6,0.3l-8,11.7l-4.3-4.5c-0.4-0.5-1.2-0.5-1.7,0c-0.5,0.4-0.5,1.2,0,1.7    l5.3,5.6c0.2,0.2,0.5,0.4,0.9,0.4c0,0,0.1,0,0.1,0c0.4,0,0.7-0.2,0.9-0.5l8.8-13C43.1,27.8,43,27.1,42.4,26.7z"/><path class="st1" d="M67.7,50.1h-0.9c-0.1-0.8-0.4-1.5-0.7-2.2c-0.5-1-1.2-1.9-2.1-2.5c-1.2-0.8-2.5-1.2-4-1.2v0.1    c-1.4,0-2.8,0.4-4,1.2c-0.9,0.6-1.6,1.5-2.1,2.5c-0.3,0.7-0.6,1.5-0.7,2.2h-0.9c-1.3,0-2.4,1.1-2.4,2.4v11.8    c0,1.3,1.1,2.4,2.4,2.4h15.3c1.3,0,2.4-1.1,2.4-2.4V52.4C70,51.1,69,50.1,67.7,50.1z M56.1,48.8c0.3-0.6,0.7-1.2,1.3-1.6    c0.8-0.5,1.7-0.7,2.6-0.7v-0.1c0.9,0,1.8,0.2,2.6,0.7c0.6,0.4,1,1,1.3,1.6c0.2,0.4,0.3,0.8,0.4,1.2h-8.6    C55.8,49.6,55.9,49.2,56.1,48.8z M67.7,64.2H52.4V52.4h2h11.4h2V64.2z"/></g></g></svg>