<?xml version="1.0" ?><svg xmlns="http://www.w3.org/2000/svg" xmlns:xlink="http://www.w3.org/1999/xlink" version="1.1" id="design" viewBox="0 0 100 100" style="enable-background:new 0 0 100 100;" xml:space="preserve"><style type="text/css">
	.st0{fill:#D5FFA2;}
	.st1{fill:#333333;}
</style><g><path class="st0" d="M45,28.3h31.5c1.2,0,2.2,1,2.2,2.2v14.3c0,1.2-1,2.2-2.2,2.2H45c-1.2,0-2.2-1-2.2-2.2V30.4   C42.8,29.2,43.8,28.3,45,28.3z"/><g><path class="st1" d="M52.7,72.7h-7l-7.8-7.8c0.1,0,0.1,0,0.2,0c3.4-0.2,6-3.1,5.8-6.4l0-1.7c0-0.3,0-0.5,0-0.8    c-0.2-3.4-3.1-5.9-6.5-5.7c-3.4,0.2-5.9,3.1-5.7,6.4l0,1.7c0,0.1,0,0.2,0,0.3c0,2.2,1.2,4.2,2.9,5.3H34c-3.1,0-5.1,2-6,5.8    l-2.5,8.8c-0.2,0.6,0.2,1.2,0.7,1.3c0.1,0,0.2,0,0.3,0c0.5,0,0.9-0.3,1-0.8l2.5-8.8c0.9-3.7,2.6-4.2,3.9-4.2h2.1l8.4,8.4    c0.2,0.2,0.5,0.3,0.8,0.3h6.4c-0.1,0.7-0.2,1.6-0.8,2.1c-0.4,0.5-1,0.7-1.9,0.7h-7.1L36,72.9c-0.5-0.4-1.2-0.3-1.5,0.2    s-0.3,1.2,0.2,1.5l6.2,5c0.2,0.2,0.4,0.2,0.7,0.2H49c1.5,0,2.7-0.5,3.5-1.4c1.6-1.8,1.3-4.7,1.3-4.8    C53.7,73.1,53.3,72.7,52.7,72.7z M33.9,56.5c-0.1-1,0.3-2.1,1-2.8c0.7-0.8,1.6-1.3,2.7-1.3c0.1,0,0.2,0,0.3,0c2,0,3.8,1.6,3.9,3.7    c0,0.2,0,0.3,0,0.6l0,1.9c0.1,1.1-0.3,2.1-1,2.9C40,62.1,39,62.6,38,62.6l-0.2,0c-2.2,0-3.9-1.8-3.9-4l0-0.2L33.9,56.5z"/><path class="st1" d="M65.8,65.2H49c-0.4,0-0.7,0.2-0.9,0.5l-2.5,3.8c-0.3,0.5-0.2,1.2,0.3,1.5c0.5,0.3,1.2,0.2,1.5-0.3l2.2-3.3    h14.6l-3.5,10.3h-5.5c-0.6,0-1.1,0.5-1.1,1.1s0.5,1.1,1.1,1.1h6.2c0.5,0,0.9-0.3,1-0.7l4.2-12.5c0.1-0.3,0.1-0.7-0.1-1    C66.4,65.3,66.1,65.2,65.8,65.2z"/><path class="st1" d="M67.2,20.2H25c-2,0-3.6,1.6-3.6,3.6v27.5c0,1,0.3,1.9,1,2.6c0.7,0.7,1.6,1.1,2.6,1.1h3.4    c0.6,0,1.1-0.5,1.1-1.1c0-0.6-0.5-1.1-1.1-1.1H25c-0.4,0-0.7-0.2-1-0.4c-0.3-0.3-0.4-0.6-0.4-1V23.8c0-0.8,0.6-1.4,1.4-1.4h42.2    c0.8,0,1.4,0.6,1.4,1.4v27.5c0,0.8-0.6,1.4-1.4,1.4h-6c-0.3,0-0.7,0.2-0.9,0.4L55,60c0,0-0.1,0.1-0.1,0.1c-0.1,0-0.2-0.1-0.2-0.2    v-6.1c0-0.6-0.5-1.1-1.1-1.1h-5.9c-0.6,0-1.1,0.5-1.1,1.1c0,0.6,0.5,1.1,1.1,1.1h4.9v5c0,0.6,0.2,1.2,0.7,1.7    c0.4,0.4,1,0.7,1.6,0.7c0,0,0,0,0,0c0.8,0,1.5-0.4,1.9-1l4.9-6.4h5.5c2,0,3.6-1.6,3.6-3.6V23.8C70.8,21.8,69.1,20.2,67.2,20.2z"/><path class="st1" d="M51.4,34.2c-0.3-0.2-0.6-0.4-0.9-0.5c-1-0.2-1.9,0.4-2.2,1.5c-0.4,2.2,0.3,4.5,1.9,6.1    c1.8,1.8,4.4,2.3,6.7,1.5l2.6,2.6c0.2,0.2,0.5,0.3,0.8,0.3c0.3,0,0.6-0.1,0.8-0.3c0.4-0.4,0.4-1.1,0-1.5l-2.7-2.8    c-0.5-0.5-1.2-0.6-1.9-0.4c-1.6,0.6-3.4,0.2-4.6-1c-0.9-0.9-1.4-2.2-1.4-3.5l1.9,1.9c0.6,0.8,1.8,0.8,2.5,0.2c0,0,0.1-0.1,0.1-0.1    l2-2c0.7-0.7,0.8-1.8,0.2-2.5c0,0-0.1-0.1-0.1-0.1l-1.9-1.9c1.3-0.1,2.6,0.5,3.5,1.4c1.2,1.2,1.6,3,0.9,4.7    c-0.2,0.7-0.1,1.4,0.4,1.9l3,3c0.4,0.4,1.1,0.4,1.5,0c0.4-0.4,0.4-1.1,0-1.5l-2.8-2.8c0.8-2.3,0.2-4.9-1.5-6.7    c-1.6-1.6-3.9-2.3-6.2-1.9c-0.3,0.1-0.7,0.2-0.9,0.5c-0.3,0.3-0.5,0.8-0.6,1.3c0,0.5,0.2,0.9,0.5,1.3l2.2,2.2l-1.6,1.6L51.4,34.2z    "/><path class="st1" d="M28.5,30.5h9.8c0.6,0,1.1-0.5,1.1-1.1s-0.5-1.1-1.1-1.1h-9.8c-0.6,0-1.1,0.5-1.1,1.1S27.9,30.5,28.5,30.5z"/><path class="st1" d="M28.5,35.9h6.1c0.6,0,1.1-0.5,1.1-1.1s-0.5-1.1-1.1-1.1h-6.1c-0.6,0-1.1,0.5-1.1,1.1S27.9,35.9,28.5,35.9z"/></g></g></svg>